# xmcd
#
# Track frame offsets:
#	150
#	21709
#	43155
#	59288
#	75591
#	95803
#	115226
#	133017
#	158774
#	172055
#	194161
#	213630
#	233783
#	255565
#	275837
#	295159
#
# Disc length: 4243
#
# Revision: 2
# Processed by: cddbd v1.5.1PL0 Copyright (c) Steve Scherf et al.
# Submitted via: audiograbber 1.82.02
# Normalized: r1:DSETVAR1
#
DISCID=fd109110
DTITLE=Various Artist - Timeless Cd1
DYEAR=1900
DGENRE=
TTITLE0=Anita Baker - The look of love
TTITLE1=Tuck and Patti - Time after time
TTITLE2=Josè Feliciano - Light my fire
TTITLE3=Iggy Pop - Sea of love
TTITLE4=Cowboy Junkies - Blue moon revisited
TTITLE5=Simply Red - You make me feel brand new
TTITLE6=Terence Trent D'Arby - Wonderful world
TTITLE7=Randy Crawford - Imagine
TTITLE8=Dionne Warwick - Walk on by
TTITLE9=Cesaria Evora - Besame mucho
TTITLE10=The Fugees - No woman no cry
TTITLE11=The Jeff Healey Band - Angel
TTITLE12=Aaliyah - At your best you are love
TTITLE13=R. Kelly - Sadie
TTITLE14=Ruby Turner - Ooo baby baby
TTITLE15=Carly Simon - As time goes by
EXTD=
EXTT0=
EXTT1=
EXTT2=
EXTT3=
EXTT4=
EXTT5=
EXTT6=
EXTT7=
EXTT8=
EXTT9=
EXTT10=
EXTT11=
EXTT12=
EXTT13=
EXTT14=
EXTT15=
PLAYORDER=
